<svg xmlns="http://www.w3.org/2000/svg" viewBox="0 0 189 63.75"><path fill="#fff" d="M64.4 46.05h4.9v11.8h-3v-9.3h-1.9v-2.5Zm-7-.3c-.8 0-1.5.2-2.1.6-.6.4-1.1.8-1.5 1.4v-1.7h-3v11.8h3v-7.5c.3-.5.7-.9 1.2-1.2.4-.3.9-.5 1.5-.5s1.2.2 1.6.6c.4.5.6 1.1.6 1.8v6.9h3v-7.3c.1-1.3-.3-2.7-1.2-3.7-.9-.8-2-1.2-3.1-1.2Zm-41.6 12.2h3v-16.9h-3v16.9Zm-7.4-2.8c-.9 0-1.8-.2-2.6-.7-.8-.4-1.4-1.1-1.8-1.8-.5-.8-.7-1.7-.7-2.6s.2-1.8.7-2.6c.4-.8 1.1-1.4 1.8-1.8.8-.5 1.7-.7 2.6-.7.6 0 1.2.1 1.8.3.5.2.9.4 1.4.7.4.3.8.5 1.2.8v-3.4c-.6-.5-1.2-.9-1.9-1.1-.9-.3-1.7-.4-2.6-.4-1.1 0-2.2.2-3.2.6s-1.9 1-2.6 1.7c-.8.7-1.4 1.6-1.8 2.6-.4 1.1-.7 2.2-.7 3.3s.2 2.3.7 3.3c.4 1 1 1.9 1.8 2.6s1.7 1.3 2.6 1.7c1 .4 2.1.6 3.2.6.9 0 1.8-.1 2.7-.4.7-.3 1.4-.6 2-1.2v-3.2c-.6.5-1.2.9-1.9 1.2-.9.4-1.8.6-2.7.5Zm35.8-9.1h3v11.8h-3v-2c-.4.7-.9 1.2-1.5 1.7-.7.5-1.5.7-2.3.7-.9 0-1.8-.2-2.6-.7-.8-.5-1.5-1.2-1.9-2.1-.5-1-.8-2.2-.7-3.4 0-1.2.2-2.3.7-3.4.5-.9 1.1-1.6 2-2.2.8-.5 1.8-.8 2.8-.8.7 0 1.3.2 1.9.4.6.3 1.2.7 1.6 1.2v-1.2Zm0 4.1c-.4-.4-.9-.8-1.4-1.1s-1-.4-1.6-.4-1.1.2-1.6.5c-.4.3-.8.8-1 1.3-.3.5-.4 1.1-.4 1.7 0 .8.3 1.6.8 2.3.5.6 1.3 1 2.1.9.5 0 1-.1 1.5-.4s.9-.7 1.1-1.2c.3-.6.5-1.2.4-1.8v-1.8h.1Zm23.3-10.2c-.5 0-1.1.2-1.4.6-.4.4-.6.9-.6 1.4s.2 1 .6 1.4.9.6 1.4.6 1.1-.2 1.5-.6.6-.9.6-1.4-.2-1.1-.6-1.4c-.4-.4-.9-.6-1.5-.6Zm-35 8.7c.5 1 .7 2 .7 3.1v1.3h-8.6c.1.8.6 1.5 1.2 1.9.7.5 1.5.8 2.3.7.8 0 1.6-.2 2.3-.5.6-.3 1.2-.6 1.7-1.1v2.8c-.5.4-1.1.7-1.7 1-.8.3-1.6.5-2.4.5-1.1 0-2.2-.3-3.2-.8-.9-.5-1.7-1.3-2.3-2.2-.6-1-.9-2-.9-3.2 0-1.1.3-2.2.8-3.2.5-.9 1.2-1.7 2.1-2.3.9-.6 2-.9 3.1-.9 1 0 2.1.2 3 .8.8.5 1.5 1.2 1.9 2.1Zm-2.2 2.2c0-.7-.4-1.4-.9-1.9-.5-.4-1.2-.6-1.9-.6s-1.3.2-1.9.7c-.5.5-.9 1.1-1 1.8h5.7Zm142.1 4.6c-.9 0-1.7-.3-2.4-.9-.6-.6-1-1.5-.9-2.4 0-.6.1-1.2.4-1.7.3-.5.7-.9 1.2-1.2s1.1-.4 1.7-.4 1.3.1 1.9.3c.5.2.9.4 1.4.8v-2.7c-.4-.3-.9-.6-1.3-.8-.7-.3-1.4-.4-2.2-.4-.9 0-1.7.2-2.5.5-.7.3-1.4.8-2 1.4-.6.6-1 1.3-1.3 2-.3.8-.5 1.6-.5 2.4 0 1.1.3 2.1.8 3.1.5.9 1.3 1.7 2.2 2.3 1 .6 2.1.9 3.2.9.7 0 1.5-.1 2.2-.4.5-.2.9-.5 1.3-.8v-2.7c-.4.3-.9.6-1.4.7-.6-.1-1.2 0-1.8 0Zm-14.3-6.8h1.9v9.3h3v-11.9h-4.9v2.6Zm-8 4.8-3-7.3h-3.4l5.5 11.8h1.9l5.6-11.8h-3.5l-3.1 7.3Zm-70.5-7.7c-.8 0-1.5.2-2.1.6-.6.4-1.1.8-1.5 1.4v-1.7h-3v11.8h3v-7.5c.3-.5.7-.9 1.2-1.2.4-.3.9-.5 1.5-.5s1.2.2 1.6.6c.4.5.6 1.1.6 1.8v6.9h3v-7.3c.1-1.3-.3-2.7-1.2-3.7-.9-.8-2-1.2-3.1-1.2Zm109.4 7.2h-8.6c.1.8.6 1.4 1.2 1.9.7.5 1.5.8 2.3.7.8 0 1.6-.2 2.3-.5.6-.3 1.2-.6 1.7-1.1v2.8c-.5.4-1.1.7-1.7 1-.8.3-1.6.5-2.4.5-1.1 0-2.2-.3-3.2-.8-.9-.5-1.7-1.3-2.3-2.2-.6-1-.9-2-.9-3.2 0-1.1.3-2.2.8-3.2.5-.9 1.2-1.7 2.1-2.3.9-.6 2-.9 3.1-.9 1 0 2.1.2 3 .8.8.5 1.5 1.2 1.9 2.1.5 1 .7 2 .7 3.1v1.3Zm-2.8-2.1c0-.7-.4-1.4-.9-1.9-.5-.4-1.2-.6-1.9-.6s-1.3.2-1.9.7c-.5.5-.9 1.1-1 1.8h5.7Zm-25-10.9c-.5 0-1.1.2-1.4.6-.4.4-.6.9-.6 1.4s.2 1 .6 1.4c.4.4.9.6 1.4.6s1.1-.2 1.5-.6.6-.9.6-1.4-.2-1.1-.6-1.4c-.4-.4-.9-.6-1.5-.6Zm-45.1 9.5-1.9-.8c-.6-.2-1.1-.5-1.7-.8-.4-.2-.7-.7-.7-1.2 0-.4.1-.7.4-1 .3-.3.6-.5 1-.6s.8-.2 1.2-.2c.8 0 1.5.1 2.2.4.6.3 1.2.6 1.8 1v-3.1c-.6-.4-1.2-.7-1.9-.9-.8-.3-1.6-.4-2.5-.4s-1.9.2-2.7.6-1.5.9-2.1 1.7c-.5.7-.8 1.6-.8 2.5s.2 1.8.6 2.5c.6.9 1.5 1.5 2.5 1.8l2.4.9c.4.2.9.4 1.3.6.4.2.6.6.6 1 0 .5-.3.9-.7 1.2-.5.3-1.1.4-1.7.4-.9 0-1.8-.2-2.6-.5s-1.6-.8-2.3-1.3v3.2c.7.5 1.4.9 2.2 1.1.8.3 1.7.5 2.6.5 1 0 2-.2 3-.6.8-.4 1.6-.9 2.2-1.7.5-.7.8-1.6.8-2.5 0-.8-.3-1.6-.8-2.3-.7-.6-1.5-1.1-2.4-1.5Zm-20.6-3.4h3v11.5c0 1.2-.3 2.4-.9 3.4-.6.9-1.4 1.6-2.4 2.1s-2.1.7-3.2.7c-.9 0-1.8-.1-2.6-.5-.7-.3-1.3-.7-1.9-1.1v-2.8c.4.2.7.5 1.1.7.4.3.9.5 1.4.6.6.2 1.2.3 1.8.3.7 0 1.3-.1 1.9-.4.5-.2 1-.6 1.3-1.1s.5-1.1.5-1.6v-2.1c-.4.7-.9 1.2-1.5 1.7-.7.5-1.5.7-2.3.7-.9 0-1.8-.2-2.6-.7-.8-.5-1.5-1.2-1.9-2.1-.5-1-.8-2.2-.7-3.4 0-1.2.2-2.3.7-3.4.5-.9 1.1-1.6 2-2.2.8-.5 1.8-.8 2.8-.8.7 0 1.3.2 1.9.4.6.3 1.2.7 1.6 1.2v-1.1Zm0 4.1c-.4-.4-.9-.8-1.4-1.1s-1-.4-1.6-.4-1.1.2-1.6.5c-.4.3-.8.7-1 1.2-.3.5-.4 1.1-.4 1.7 0 .8.3 1.6.8 2.3.5.6 1.3 1 2.1.9.5 0 1-.1 1.5-.4s.9-.7 1.1-1.2c.3-.6.5-1.2.4-1.8v-1.7h.1Zm36.6-1.5c.5 1 .7 2 .7 3.1v1.3h-8.6c.1.8.6 1.4 1.2 1.9.7.5 1.5.8 2.3.7.8 0 1.6-.2 2.3-.5.6-.3 1.2-.6 1.7-1.1v2.8c-.5.4-1.1.7-1.7 1-.8.3-1.6.5-2.4.5-1.1 0-2.2-.3-3.2-.8-.9-.5-1.7-1.3-2.3-2.2-.6-1-.9-2-.9-3.2 0-1.1.3-2.2.8-3.2.5-.9 1.2-1.7 2.1-2.3.9-.6 2-.9 3.1-.9 1 0 2.1.2 3 .8.8.5 1.5 1.2 1.9 2.1Zm-2.2 2.2c0-.7-.4-1.4-.9-1.9-.5-.4-1.2-.6-1.9-.6s-1.3.2-1.9.7c-.5.5-.9 1.1-1 1.8h5.7Zm11.9-5c-.7 0-1.4.2-1.9.7-.6.5-1.1 1.1-1.4 1.8v-2.2h-3v11.8h3v-6.6c.3-.6.7-1.2 1.2-1.7.5-.4 1.1-.7 1.7-.7s1.1.1 1.6.4v-3.3c-.4-.1-.8-.2-1.2-.2ZM88.8 5.3c-.7 2.1-2.2 3.9-4.2 5 2 1.1 3.5 2.8 4.2 5 .7-2.1 2.2-3.9 4.2-5-2-1.1-3.5-2.9-4.2-5Zm9.4 1.9c.5-1.5 1.6-2.8 3-3.6-1.4-.8-2.5-2-3-3.6-.5 1.5-1.6 2.8-3 3.6 1.5.8 2.5 2.1 3 3.6Zm.2 8.7c-1 3.1-3.2 5.6-6 7.1 2.8 1.5 5 4.1 6 7.1 1-3.1 3.2-5.6 6-7.1-2.9-1.5-5-4.1-6-7.1Z"/></svg>